<svg xmlns="http://www.w3.org/2000/svg" xmlns:xlink="http://www.w3.org/1999/xlink" width="560" zoomAndPan="magnify" viewBox="0 0 420 195.000001" height="260" preserveAspectRatio="xMidYMid meet" version="1.0"><defs><clipPath id="9c9e318958"><path d="M 67.539062 31 L 352.574219 31 L 352.574219 161 L 67.539062 161 Z M 67.539062 31 " clip-rule="nonzero"/></clipPath></defs><g clip-path="url(#9c9e318958)"><path fill="#444444" d="M 113.855469 111.601562 C 113.769531 112.160156 113.566406 112.671875 113.242188 113.132812 C 112.921875 113.597656 112.515625 113.96875 112.023438 114.246094 C 111.046875 114.875 110.191406 115.191406 109.324219 115.507812 C 107.484375 116.140625 105.542969 116.777344 103.492188 117.515625 C 101.328125 118.25 99.390625 118.988281 97.660156 119.519531 C 95.5 120.257812 93.449219 120.894531 91.5 121.628906 C 90.027344 122.261719 88.660156 123.070312 87.402344 124.058594 C 86.234375 125.121094 85.226562 126.316406 84.378906 127.648438 C 83.515625 129.121094 82.96875 131.023438 82.96875 133.238281 C 82.96875 137.675781 84.050781 141.050781 86.210938 143.160156 C 88.371094 145.382812 92.371094 146.433594 98.300781 146.433594 C 104.347656 146.433594 108.449219 145.273438 110.617188 142.953125 C 112.773438 140.628906 113.851562 137.359375 113.851562 133.140625 L 113.851562 111.601562 Z M 98.304688 64.84375 C 108.894531 64.84375 116.664062 66.851562 121.628906 70.96875 C 126.597656 74.984375 129.082031 80.148438 129.082031 86.265625 L 129.082031 138.414062 C 129.082031 140.523438 128.652344 142.84375 127.898438 145.375 C 127.136719 147.917969 125.628906 150.234375 123.253906 152.339844 C 120.988281 154.457031 117.855469 156.253906 113.859375 157.625 C 109.867188 158.996094 104.683594 159.734375 98.3125 159.734375 C 91.949219 159.734375 86.757812 158.996094 82.765625 157.625 C 78.777344 156.253906 75.640625 154.457031 73.375 152.339844 C 71.234375 150.414062 69.6875 148.089844 68.734375 145.375 C 67.96875 142.851562 67.539062 140.527344 67.539062 138.417969 L 67.539062 130.082031 C 67.539062 125.644531 68.722656 121.527344 71.101562 117.9375 C 73.476562 114.246094 76.820312 111.714844 81.144531 110.128906 C 83.300781 109.390625 85.785156 108.65625 88.589844 107.703125 C 91.398438 106.75 93.984375 105.796875 96.582031 104.960938 C 99.175781 104.109375 101.441406 103.261719 103.382812 102.519531 C 104.550781 102.050781 105.738281 101.632812 106.945312 101.257812 L 108.886719 100.308594 C 109.652344 99.886719 110.398438 99.253906 111.160156 98.410156 C 111.910156 97.570312 112.558594 96.621094 113.101562 95.5625 C 113.6875 94.402344 113.976562 93.171875 113.96875 91.871094 L 113.96875 88.492188 C 113.976562 87.238281 113.722656 86.042969 113.203125 84.898438 C 112.777344 83.628906 111.910156 82.46875 110.726562 81.417969 C 109.539062 80.359375 107.917969 79.515625 105.976562 78.875 C 104.03125 78.25 101.445312 77.929688 98.523438 77.929688 C 92.476562 77.929688 88.484375 79.101562 86.324219 81.519531 C 84.492188 83.632812 83.414062 86.269531 83.199219 89.222656 C 83.199219 89.859375 82.660156 90.28125 82.007812 90.28125 L 68.839844 90.496094 C 68.683594 90.496094 68.535156 90.464844 68.386719 90.40625 C 68.242188 90.347656 68.117188 90.265625 68.003906 90.15625 C 67.890625 90.046875 67.804688 89.917969 67.746094 89.777344 C 67.683594 89.632812 67.652344 89.480469 67.648438 89.324219 L 67.648438 86.277344 C 67.648438 83.3125 68.195312 80.570312 69.378906 77.929688 C 70.570312 75.289062 72.410156 73.078125 74.886719 71.171875 C 77.371094 69.273438 80.613281 67.695312 84.496094 66.636719 C 88.277344 65.367188 92.921875 64.84375 98.316406 64.84375 Z M 337.027344 111.601562 C 336.9375 112.160156 336.734375 112.671875 336.414062 113.132812 C 336.089844 113.597656 335.683594 113.96875 335.191406 114.246094 C 334.226562 114.875 333.359375 115.191406 332.496094 115.507812 C 330.664062 116.140625 328.714844 116.777344 326.664062 117.515625 C 324.5 118.25 322.554688 118.988281 320.828125 119.519531 C 318.667969 120.257812 316.613281 120.894531 314.671875 121.628906 C 313.195312 122.257812 311.828125 123.070312 310.566406 124.058594 C 309.398438 125.121094 308.394531 126.316406 307.550781 127.648438 C 306.683594 129.121094 306.144531 131.023438 306.144531 133.238281 C 306.144531 137.675781 307.214844 141.050781 309.378906 143.160156 C 311.535156 145.382812 315.535156 146.433594 321.472656 146.433594 C 327.527344 146.433594 331.625 145.273438 333.789062 142.953125 C 335.941406 140.628906 337.019531 137.359375 337.019531 133.140625 L 337.019531 111.601562 Z M 321.480469 64.84375 C 332.066406 64.84375 339.839844 66.851562 344.808594 70.96875 C 349.769531 74.984375 352.253906 80.148438 352.253906 86.265625 L 352.253906 138.414062 C 352.253906 140.523438 351.828125 142.84375 351.070312 145.375 C 350.316406 147.917969 348.804688 150.234375 346.425781 152.339844 C 344.160156 154.457031 341.03125 156.253906 337.035156 157.625 C 333.046875 158.996094 327.859375 159.734375 321.492188 159.734375 C 315.128906 159.734375 309.9375 158.996094 305.945312 157.625 C 301.957031 156.253906 298.820312 154.457031 296.554688 152.339844 C 294.417969 150.410156 292.875 148.089844 291.921875 145.375 C 291.160156 142.84375 290.726562 140.523438 290.726562 138.414062 L 290.726562 130.078125 C 290.726562 125.640625 291.917969 121.523438 294.289062 117.929688 C 296.667969 114.242188 300.015625 111.710938 304.332031 110.125 C 306.492188 109.386719 308.976562 108.648438 311.785156 107.699219 C 314.585938 106.742188 317.179688 105.792969 319.777344 104.953125 C 322.371094 104.105469 324.632812 103.257812 326.574219 102.515625 C 327.746094 102.046875 328.933594 101.628906 330.140625 101.253906 L 332.082031 100.304688 C 332.835938 99.882812 333.59375 99.246094 334.347656 98.402344 C 335.125 97.542969 335.773438 96.59375 336.292969 95.558594 C 336.875 94.394531 337.164062 93.167969 337.15625 91.867188 L 337.15625 88.488281 C 337.167969 87.234375 336.910156 86.035156 336.394531 84.894531 C 335.96875 83.625 335.105469 82.464844 333.914062 81.414062 C 332.730469 80.355469 331.117188 79.511719 329.167969 78.871094 C 327.222656 78.246094 324.636719 77.925781 321.714844 77.925781 C 315.667969 77.925781 311.675781 79.09375 309.515625 81.515625 C 307.683594 83.628906 306.601562 86.265625 306.382812 89.21875 C 306.382812 89.855469 305.851562 90.277344 305.203125 90.277344 L 292.105469 90.277344 C 291.953125 90.277344 291.804688 90.246094 291.660156 90.1875 C 291.515625 90.128906 291.390625 90.046875 291.28125 89.9375 C 291.171875 89.828125 291.085938 89.703125 291.023438 89.5625 C 290.960938 89.421875 290.929688 89.273438 290.925781 89.117188 L 290.925781 86.054688 C 290.925781 83.105469 291.464844 80.359375 292.65625 77.71875 C 293.84375 75.085938 295.675781 72.863281 298.152344 70.96875 C 300.648438 69.066406 303.878906 67.480469 307.773438 66.429688 C 311.4375 65.363281 316.082031 64.839844 321.480469 64.839844 Z M 275.164062 65.265625 L 283.804688 65.265625 C 284.558594 65.265625 285.097656 66.007812 284.882812 66.738281 L 281.96875 77.71875 C 281.867188 78.25 281.320312 78.566406 280.886719 78.566406 L 274.839844 78.566406 C 271.605469 78.566406 269.011719 78.988281 266.960938 79.835938 C 265.011719 80.675781 263.398438 81.625 262.316406 82.785156 C 261.234375 83.953125 260.585938 85.109375 260.265625 86.269531 C 259.972656 87.414062 259.828125 88.574219 259.832031 89.753906 L 259.832031 157.625 C 259.828125 157.78125 259.796875 157.929688 259.734375 158.074219 C 259.671875 158.214844 259.582031 158.339844 259.472656 158.449219 C 259.359375 158.558594 259.230469 158.640625 259.085938 158.699219 C 258.941406 158.757812 258.792969 158.785156 258.636719 158.785156 L 245.6875 158.785156 C 245.53125 158.785156 245.382812 158.753906 245.238281 158.695312 C 245.09375 158.636719 244.96875 158.554688 244.855469 158.445312 C 244.746094 158.335938 244.660156 158.210938 244.597656 158.070312 C 244.535156 157.929688 244.503906 157.78125 244.5 157.625 L 244.5 86.6875 C 244.5 85.425781 244.714844 83.527344 245.253906 81.097656 C 245.6875 78.671875 246.984375 76.351562 249.035156 73.921875 C 251.085938 71.597656 254.109375 69.488281 258.210938 67.800781 C 262.320312 66.105469 267.933594 65.261719 275.164062 65.261719 Z M 231.542969 136.089844 L 231.542969 139.257812 C 231.542969 140.628906 231.335938 142.53125 230.792969 144.960938 C 230.359375 147.277344 229.0625 149.707031 227.011719 152.023438 C 224.960938 154.351562 221.9375 156.460938 217.832031 158.148438 C 213.730469 159.839844 208.113281 160.691406 200.882812 160.691406 C 193.65625 160.691406 188.039062 159.839844 183.933594 158.148438 C 179.832031 156.460938 176.808594 154.457031 174.757812 152.027344 C 172.707031 149.710938 171.410156 147.28125 170.976562 144.863281 C 170.546875 142.421875 170.226562 140.632812 170.226562 139.261719 L 170.226562 68.222656 C 170.226562 67.589844 170.765625 67.054688 171.414062 67.054688 L 184.261719 67.054688 C 184.910156 67.054688 185.453125 67.589844 185.453125 68.222656 L 185.453125 134.71875 C 185.453125 136.933594 185.773438 138.519531 186.097656 139.785156 C 186.429688 141.054688 187.074219 142.316406 188.046875 143.375 C 189.015625 144.53125 190.53125 145.484375 192.578125 146.21875 C 194.523438 146.960938 197.226562 147.390625 200.570312 147.390625 C 204.03125 147.390625 206.828125 146.960938 208.886719 146.21875 C 210.9375 145.484375 212.449219 144.53125 213.527344 143.476562 C 214.597656 142.421875 215.359375 141.265625 215.679688 139.992188 C 216.007812 138.722656 216.445312 137.675781 216.445312 134.605469 L 216.445312 68.121094 C 216.445312 67.492188 216.980469 66.960938 217.625 66.960938 L 230.472656 66.960938 C 231.113281 66.960938 231.652344 67.492188 231.652344 68.132812 L 231.652344 136.101562 L 231.550781 136.101562 Z M 143.125 31.390625 L 155.976562 31.390625 C 156.621094 31.390625 157.160156 31.914062 157.160156 32.542969 L 157.160156 158.253906 C 157.160156 158.410156 157.128906 158.558594 157.066406 158.703125 C 157.003906 158.847656 156.917969 158.972656 156.808594 159.082031 C 156.699219 159.191406 156.570312 159.277344 156.425781 159.335938 C 156.28125 159.394531 156.132812 159.425781 155.976562 159.425781 L 143.125 159.425781 C 142.96875 159.425781 142.816406 159.394531 142.671875 159.335938 C 142.527344 159.277344 142.402344 159.191406 142.289062 159.082031 C 142.179688 158.972656 142.09375 158.847656 142.03125 158.703125 C 141.972656 158.558594 141.9375 158.410156 141.9375 158.253906 L 141.9375 32.542969 C 142.039062 31.914062 142.476562 31.386719 143.125 31.386719 Z M 143.125 31.390625 " fill-opacity="1" fill-rule="evenodd"/></g></svg>