<svg xmlns="http://www.w3.org/2000/svg" xmlns:xlink="http://www.w3.org/1999/xlink" width="560" zoomAndPan="magnify" viewBox="0 0 420 195.000001" height="260" preserveAspectRatio="xMidYMid meet" version="1.0"><defs><clipPath id="7bc14c573a"><path d="M 15.25 56.636719 L 404.753906 56.636719 L 404.753906 137.222656 L 15.25 137.222656 Z M 15.25 56.636719 " clip-rule="nonzero"/></clipPath></defs><g clip-path="url(#7bc14c573a)"><path fill="#000000" d="M 190.589844 104.257812 L 190.589844 115.566406 C 188.21875 117.675781 185.886719 119.300781 183.613281 120.449219 C 181.335938 121.601562 178.636719 122.164062 175.5 122.164062 C 170.050781 122.164062 167.335938 119.542969 167.335938 114.304688 C 167.335938 110.988281 168.648438 108.671875 171.277344 107.328125 C 172.625 106.632812 173.902344 106.039062 175.121094 105.59375 C 177.425781 104.699219 182.578125 104.257812 190.589844 104.257812 Z M 231.3125 84.816406 C 239.003906 84.816406 242.839844 90.066406 242.839844 100.152344 L 217.839844 100.152344 C 218.542969 90.066406 223.046875 84.816406 231.3125 84.816406 Z M 341.851562 78.316406 C 339.097656 78.316406 337.808594 79.003906 337.808594 80.410156 L 337.808594 127.050781 C 337.808594 128.453125 339.09375 129.164062 341.851562 129.164062 C 344.605469 129.164062 345.894531 128.453125 345.894531 127.050781 L 345.894531 91.917969 L 347.335938 90.28125 C 348.234375 89.132812 349.65625 88.019531 351.609375 86.933594 C 353.566406 85.847656 355.800781 85.292969 358.335938 85.292969 C 360.867188 85.292969 362.90625 86.128906 364.476562 87.789062 C 366.042969 89.449219 366.929688 91.714844 366.929688 94.589844 L 366.929688 127.050781 C 366.929688 128.453125 368.214844 129.164062 370.972656 129.164062 C 373.726562 129.164062 375.015625 128.453125 375.015625 127.050781 C 374.921875 115.375 375.144531 103.535156 375.015625 91.917969 C 378.925781 87.511719 382.667969 85.292969 386.644531 85.292969 C 389.65625 85.292969 391.949219 86.128906 393.519531 87.789062 C 395.089844 89.449219 396.046875 91.714844 396.046875 94.589844 L 396.046875 127.050781 C 396.046875 128.453125 397.148438 129.164062 399.914062 129.164062 C 402.683594 129.164062 404.136719 128.453125 404.136719 127.050781 L 404.136719 93.832031 C 404.136719 90.769531 403.484375 88.144531 402.523438 85.972656 C 401.5625 83.804688 400.253906 82.175781 398.652344 81.089844 C 395.765625 79.238281 392.523438 78.316406 388.871094 78.316406 C 383.167969 78.316406 378.0625 80.953125 373.574219 86.253906 C 371.394531 80.953125 366.808594 78.316406 359.824219 78.316406 C 354.546875 78.316406 349.910156 80.449219 345.894531 84.742188 L 345.894531 80.410156 C 345.894531 79.003906 344.605469 78.316406 341.851562 78.316406 Z M 290.078125 78.242188 C 287.324219 78.242188 286.035156 78.957031 286.035156 80.359375 L 286.035156 113.601562 C 286.035156 118.453125 288.226562 122.242188 291.015625 124.984375 C 293.804688 127.730469 297.859375 129.113281 303.148438 129.113281 C 308.171875 129.113281 312.644531 126.9375 316.773438 122.617188 L 316.773438 127.050781 C 316.773438 128.449219 318.132812 129.164062 320.816406 129.164062 C 323.5 129.164062 324.859375 128.535156 324.859375 127.277344 L 324.859375 80.359375 C 324.859375 78.957031 323.621094 78.242188 320.867188 78.242188 C 318.113281 78.242188 316.773438 78.957031 316.773438 80.359375 L 316.773438 115.414062 C 313.3125 119.886719 309.328125 122.109375 304.714844 122.109375 C 301.570312 122.109375 299.15625 121.296875 297.457031 119.671875 C 295.757812 118.039062 294.121094 115.757812 294.121094 112.820312 L 294.121094 80.351562 C 294.121094 78.953125 292.835938 78.242188 290.078125 78.242188 Z M 231.007812 77.914062 C 224.019531 77.914062 218.632812 80.132812 214.855469 84.539062 C 211.070312 88.945312 209.191406 95.40625 209.191406 103.929688 C 209.191406 112.457031 211.109375 118.796875 214.953125 122.945312 C 218.796875 127.097656 224.738281 129.160156 232.753906 129.164062 C 237.300781 129.164062 241.3125 128.453125 244.808594 127.050781 C 248.296875 125.644531 250.035156 124.324219 250.035156 123.042969 C 250.035156 122.40625 249.652344 121.429688 248.851562 120.148438 C 248.046875 118.871094 247.316406 118.234375 246.675781 118.234375 C 246.546875 118.234375 245.867188 118.554688 244.652344 119.195312 C 241.003906 121.234375 237.003906 122.265625 232.648438 122.265625 C 227.90625 122.265625 224.347656 121.027344 221.980469 118.539062 C 219.609375 116.046875 218.21875 112.707031 217.832031 107.40625 L 248.21875 107.40625 C 250.464844 106.675781 251.277344 105.292969 251.40625 102.925781 C 251.40625 86.257812 244.59375 77.914062 231.003906 77.914062 Z M 180.777344 77.914062 C 175.523438 77.914062 171.03125 78.605469 167.277344 79.980469 C 163.527344 81.351562 161.640625 82.71875 161.640625 84.0625 C 161.640625 84.699219 162.054688 85.65625 162.855469 86.933594 C 163.65625 88.210938 164.363281 88.847656 165.003906 88.847656 C 165.132812 88.847656 165.882812 88.492188 167.226562 87.789062 C 171.136719 85.808594 175.402344 84.816406 180.019531 84.816406 C 187.066406 84.816406 190.585938 87.484375 190.585938 92.851562 L 190.585938 97.359375 C 185.597656 97.445312 180.625 97.78125 175.667969 98.363281 C 171.351562 98.882812 167.433594 100.417969 163.917969 102.972656 C 160.421875 105.5 158.660156 109.265625 158.660156 114.304688 C 158.660156 119.351562 160.171875 123.089844 163.183594 125.511719 C 166.195312 127.945312 170.179688 129.164062 175.117188 129.164062 C 181.199219 129.164062 186.347656 127.007812 190.585938 122.695312 L 190.585938 127.050781 C 190.585938 128.453125 191.875 129.167969 194.628906 129.164062 C 197.382812 129.160156 198.671875 128.453125 198.671875 127.050781 L 198.671875 92.949219 C 198.671875 88.226562 197 84.546875 193.667969 81.898438 C 190.335938 79.246094 186.035156 77.914062 180.777344 77.914062 Z M 134.089844 77.914062 C 128 77.914062 122.847656 79.617188 118.621094 83.003906 C 116.375 84.855469 114.601562 87.511719 113.285156 90.960938 C 111.96875 94.410156 111.3125 98.511719 111.3125 103.300781 C 111.3125 112.367188 113.269531 118.957031 117.179688 123.042969 C 121.085938 127.128906 127.027344 129.164062 134.972656 129.164062 C 139.011719 129.164062 142.527344 128.632812 145.542969 127.578125 C 148.550781 126.523438 150.066406 125.429688 150.066406 124.28125 C 150.066406 123.511719 149.671875 122.503906 148.902344 121.253906 C 148.132812 120.011719 147.417969 119.394531 146.78125 119.394531 C 146.628906 119.425781 146.484375 119.476562 146.347656 119.546875 C 146.148438 119.628906 145.949219 119.703125 145.742188 119.769531 C 142.320312 121.464844 138.695312 122.296875 134.875 122.265625 C 129.488281 122.265625 125.648438 120.757812 123.371094 117.753906 C 121.097656 114.753906 119.402344 109.894531 119.402344 103.125 C 119.402344 90.933594 124.617188 84.820312 133.914062 84.820312 C 137.4375 84.820312 140.917969 85.578125 144.378906 87.109375 C 144.503906 87.175781 144.636719 87.226562 144.730469 87.261719 L 145.113281 87.414062 C 145.214844 87.464844 145.324219 87.496094 145.4375 87.511719 C 146.015625 87.511719 146.671875 86.859375 147.410156 85.546875 C 148.148438 84.238281 148.523438 83.152344 148.523438 82.324219 C 148.523438 81.171875 147.050781 80.175781 144.101562 79.277344 C 141.152344 78.382812 137.808594 77.914062 134.089844 77.914062 Z M 81.644531 64.695312 C 86.398438 64.695312 88.671875 67.285156 88.671875 72.023438 L 88.671875 121.835938 C 88.671875 126.574219 86.402344 129.164062 81.644531 129.164062 L 31.640625 129.164062 C 26.886719 129.164062 23.957031 126.574219 23.957031 121.835938 C 24.042969 92.726562 51.277344 64.605469 81.644531 64.695312 Z M 31.617188 64.695312 L 33.640625 69.933594 L 39.277344 70.238281 L 34.90625 73.785156 L 36.34375 79.199219 L 31.613281 76.152344 L 26.886719 79.199219 L 28.332031 73.785156 L 23.957031 70.238281 L 29.597656 69.933594 Z M 264.195312 56.636719 C 261.445312 56.636719 260.152344 57.347656 260.152344 58.75 L 260.152344 115.945312 C 260.152344 120.859375 261.414062 124.292969 263.945312 126.246094 C 265.171875 127.203125 266.527344 127.933594 268.003906 128.4375 C 269.484375 128.9375 271.003906 129.179688 272.5625 129.164062 C 277.242188 129.164062 279.566406 128.207031 279.566406 126.292969 C 279.566406 125.65625 279.371094 124.757812 278.988281 123.574219 C 278.601562 122.390625 278.121094 121.785156 277.546875 121.785156 C 277.414062 121.785156 276.972656 121.878906 276.203125 122.039062 C 275.433594 122.199219 274.511719 122.265625 273.425781 122.265625 C 269.964844 122.265625 268.242188 119.914062 268.242188 115.1875 L 268.242188 58.746094 C 268.242188 57.34375 266.949219 56.632812 264.199219 56.632812 Z M 28.816406 56.636719 C 27.964844 56.632812 27.125 56.714844 26.292969 56.878906 C 25.457031 57.042969 24.648438 57.285156 23.863281 57.609375 C 23.078125 57.933594 22.332031 58.328125 21.625 58.800781 C 20.917969 59.269531 20.265625 59.804688 19.664062 60.402344 C 19.0625 61.003906 18.523438 61.652344 18.050781 62.359375 C 17.578125 63.0625 17.179688 63.804688 16.855469 64.589844 C 16.53125 65.371094 16.285156 66.179688 16.117188 67.011719 C 15.953125 67.84375 15.867188 68.683594 15.867188 69.53125 L 15.867188 124.328125 C 15.867188 125.175781 15.953125 126.015625 16.117188 126.847656 C 16.285156 127.679688 16.53125 128.484375 16.855469 129.269531 C 17.179688 130.050781 17.578125 130.796875 18.050781 131.5 C 18.523438 132.203125 19.0625 132.855469 19.660156 133.453125 C 20.261719 134.054688 20.917969 134.589844 21.625 135.058594 C 22.332031 135.527344 23.074219 135.925781 23.859375 136.25 C 24.644531 136.570312 25.457031 136.816406 26.289062 136.980469 C 27.121094 137.144531 27.960938 137.226562 28.8125 137.222656 L 83.816406 137.222656 C 84.664062 137.226562 85.503906 137.144531 86.339844 136.980469 C 87.171875 136.816406 87.980469 136.570312 88.765625 136.25 C 89.550781 135.925781 90.296875 135.527344 91.003906 135.058594 C 91.710938 134.589844 92.363281 134.054688 92.964844 133.453125 C 93.566406 132.855469 94.101562 132.203125 94.574219 131.5 C 95.046875 130.796875 95.445312 130.050781 95.773438 129.269531 C 96.097656 128.484375 96.34375 127.679688 96.507812 126.847656 C 96.675781 126.015625 96.757812 125.175781 96.757812 124.328125 L 96.757812 69.53125 C 96.757812 68.683594 96.675781 67.84375 96.507812 67.011719 C 96.34375 66.179688 96.097656 65.375 95.773438 64.589844 C 95.445312 63.808594 95.046875 63.0625 94.574219 62.359375 C 94.101562 61.65625 93.566406 61.003906 92.964844 60.40625 C 92.363281 59.804688 91.710938 59.269531 91.003906 58.800781 C 90.296875 58.332031 89.550781 57.933594 88.765625 57.609375 C 87.980469 57.289062 87.171875 57.042969 86.339844 56.878906 C 85.503906 56.714844 84.664062 56.636719 83.816406 56.636719 L 28.8125 56.636719 Z M 28.816406 56.636719 " fill-opacity="1" fill-rule="evenodd"/></g></svg>