<svg xmlns="http://www.w3.org/2000/svg" xmlns:xlink="http://www.w3.org/1999/xlink" width="560" zoomAndPan="magnify" viewBox="0 0 420 195.000001" height="260" preserveAspectRatio="xMidYMid meet" version="1.0"><defs><clipPath id="56336eb113"><path d="M 16 40.449219 L 104 40.449219 L 104 153.867188 L 16 153.867188 Z M 16 40.449219 " clip-rule="nonzero"/></clipPath></defs><path fill="#ffcd09" d="M 36.019531 60.75 L 36.019531 133.570312 L 103.847656 133.570312 L 103.847656 113.144531 L 56.273438 113.144531 L 56.273438 81.367188 L 103.847656 81.367188 L 103.847656 60.75 Z M 36.019531 60.75 " fill-opacity="1" fill-rule="nonzero"/><g clip-path="url(#56336eb113)"><path fill="#f58220" d="M 36.019531 40.449219 L 16.0625 60.75 L 16.0625 133.570312 L 36.019531 153.871094 L 103.847656 153.871094 L 103.847656 133.570312 L 36.019531 133.570312 L 36.019531 60.75 L 103.847656 60.75 L 103.847656 40.449219 Z M 36.019531 40.449219 " fill-opacity="1" fill-rule="nonzero"/></g><path fill="#000000" d="M 139.757812 93.632812 C 138.664062 93.925781 137.382812 94.074219 135.917969 94.074219 C 134.28125 94.074219 132.773438 93.78125 131.386719 93.191406 C 129.976562 92.589844 128.769531 91.707031 127.765625 90.542969 C 126.738281 89.363281 125.933594 87.886719 125.34375 86.121094 C 124.757812 84.359375 124.464844 82.296875 124.464844 79.9375 C 124.464844 77.320312 124.773438 75.109375 125.394531 73.3125 C 126.011719 71.515625 126.835938 70.054688 127.863281 68.945312 C 128.894531 67.832031 130.058594 67.027344 131.363281 66.535156 C 132.640625 66.050781 133.964844 65.804688 135.328125 65.800781 C 138.230469 65.800781 140.46875 66.175781 142.03125 66.929688 L 144.140625 63.691406 C 142.503906 63.101562 141.070312 62.699219 139.832031 62.488281 C 138.589844 62.273438 136.992188 62.171875 135.035156 62.171875 C 133.207031 62.171875 131.410156 62.496094 129.652344 63.152344 C 127.886719 63.808594 126.296875 64.84375 124.878906 66.265625 C 123.457031 67.691406 122.316406 69.527344 121.453125 71.761719 C 120.589844 74.007812 120.15625 76.734375 120.15625 79.9375 C 120.15625 83.011719 120.546875 85.671875 121.332031 87.910156 C 122.113281 90.152344 123.175781 91.996094 124.511719 93.433594 C 125.832031 94.867188 127.398438 95.9375 129.210938 96.648438 C 131.003906 97.347656 132.933594 97.703125 134.988281 97.703125 C 136.683594 97.703125 138.28125 97.554688 139.785156 97.261719 C 141.285156 96.964844 142.898438 96.148438 144.632812 94.804688 L 142.523438 92.5 C 141.769531 92.964844 140.851562 93.339844 139.757812 93.632812 Z M 292.109375 92.722656 C 291.015625 93.015625 289.738281 93.164062 288.269531 93.164062 C 286.632812 93.164062 285.125 92.871094 283.742188 92.28125 C 282.328125 91.679688 281.121094 90.796875 280.121094 89.628906 C 279.09375 88.453125 278.285156 86.980469 277.699219 85.210938 C 277.113281 83.445312 276.820312 81.382812 276.820312 79.027344 C 276.820312 76.410156 277.125 74.199219 277.746094 72.402344 C 278.367188 70.601562 279.191406 69.144531 280.21875 68.03125 C 281.246094 66.921875 282.410156 66.117188 283.714844 65.625 C 284.992188 65.136719 286.316406 64.890625 287.679688 64.890625 C 290.585938 64.890625 292.820312 65.265625 294.386719 66.019531 L 296.492188 62.777344 C 294.859375 62.1875 293.421875 61.789062 292.183594 61.578125 C 290.941406 61.363281 289.347656 61.257812 287.386719 61.257812 C 285.535156 61.257812 283.738281 61.585938 282.003906 62.238281 C 280.242188 62.894531 278.652344 63.933594 277.230469 65.355469 C 275.8125 66.777344 274.667969 68.613281 273.804688 70.851562 C 272.941406 73.09375 272.507812 75.820312 272.507812 79.023438 C 272.507812 82.097656 272.902344 84.757812 273.683594 87 C 274.46875 89.242188 275.527344 91.082031 276.863281 92.519531 C 278.203125 93.960938 279.769531 95.035156 281.5625 95.734375 C 283.359375 96.4375 285.285156 96.789062 287.339844 96.789062 C 289.035156 96.789062 290.636719 96.644531 292.136719 96.347656 C 293.636719 96.050781 295.253906 95.234375 296.984375 93.894531 L 294.878906 91.585938 C 294.125 92.050781 293.203125 92.425781 292.109375 92.722656 Z M 164.621094 94.292969 C 164.179688 93.167969 163.960938 91.996094 163.960938 90.785156 C 163.960938 89.117188 164.011719 87.351562 164.109375 85.484375 C 164.207031 83.621094 164.253906 81.703125 164.253906 79.742188 C 164.253906 78.859375 164.164062 77.976562 163.984375 77.089844 C 163.804688 76.199219 163.449219 75.390625 162.910156 74.664062 C 162.371094 73.925781 161.589844 73.328125 160.5625 72.871094 C 159.53125 72.414062 158.171875 72.183594 156.472656 72.183594 C 154.679688 72.183594 152.957031 72.363281 151.3125 72.722656 C 149.664062 73.085938 148.21875 73.640625 146.980469 74.390625 L 148.203125 77.339844 C 148.660156 77.078125 149.191406 76.839844 149.792969 76.628906 C 150.394531 76.417969 151.035156 76.234375 151.703125 76.089844 C 152.351562 75.941406 153.003906 75.828125 153.660156 75.746094 C 154.253906 75.667969 154.847656 75.625 155.445312 75.621094 C 157.339844 75.621094 158.644531 75.980469 159.363281 76.699219 C 160.078125 77.421875 160.4375 78.679688 160.4375 80.480469 C 160.4375 81.265625 160.390625 82.148438 160.292969 83.132812 C 159.835938 83.066406 159.386719 83.035156 158.949219 83.035156 L 157.601562 83.035156 C 155.347656 83.035156 153.214844 83.15625 151.191406 83.402344 C 149.167969 83.648438 147.597656 84.539062 146.492188 86.074219 C 145.382812 87.617188 144.828125 89.105469 144.828125 90.542969 C 144.828125 91.621094 145.011719 92.585938 145.390625 93.4375 C 145.753906 94.273438 146.265625 95.003906 146.933594 95.625 C 147.582031 96.230469 148.359375 96.695312 149.253906 97.023438 C 150.195312 97.359375 151.167969 97.523438 152.167969 97.515625 C 153.210938 97.515625 154.253906 97.394531 155.296875 97.167969 C 156.34375 96.941406 157.175781 96.652344 157.792969 96.3125 C 158.414062 95.964844 158.945312 95.574219 159.386719 95.132812 C 159.824219 94.691406 160.191406 94.242188 160.484375 93.78125 L 160.730469 93.78125 C 161.414062 96.070312 162.261719 97.21875 163.273438 97.21875 L 166.75 97.21875 C 165.773438 96.398438 165.0625 95.421875 164.621094 94.292969 Z M 160.289062 90.195312 C 160.097656 90.671875 159.84375 91.117188 159.53125 91.523438 C 159.191406 91.980469 158.757812 92.398438 158.234375 92.773438 C 157.710938 93.148438 156.980469 93.460938 156.03125 93.707031 C 155.085938 93.953125 154.15625 94.074219 153.246094 94.074219 C 151.96875 94.074219 150.925781 93.707031 150.109375 92.96875 C 149.296875 92.230469 148.886719 91.292969 148.886719 90.148438 C 148.886719 89.332031 149.207031 88.496094 149.839844 87.644531 C 150.476562 86.792969 151.546875 86.308594 153.046875 86.195312 C 154.527344 86.082031 156.011719 86.027344 157.5 86.023438 C 158.429688 86.027344 159.359375 86.058594 160.289062 86.121094 Z M 181.117188 84.503906 C 180.25 83.914062 179.304688 83.441406 178.277344 83.078125 C 177.316406 82.746094 176.371094 82.378906 175.4375 81.976562 C 174.574219 81.597656 173.847656 81.171875 173.261719 80.699219 C 172.675781 80.226562 172.378906 79.558594 172.378906 78.710938 C 172.378906 77.5 172.714844 76.648438 173.382812 76.15625 C 174.050781 75.667969 175.105469 75.421875 176.539062 75.421875 C 177.746094 75.421875 178.878906 75.5625 179.9375 75.839844 C 181 76.117188 181.90625 76.4375 182.65625 76.796875 L 183.585938 73.554688 C 182.703125 73.132812 181.667969 72.761719 180.480469 72.449219 C 179.285156 72.140625 177.8125 71.984375 176.046875 71.984375 C 173.667969 71.984375 171.808594 72.535156 170.46875 73.628906 C 169.128906 74.726562 168.460938 76.449219 168.460938 78.804688 C 168.460938 80.246094 168.753906 81.390625 169.34375 82.242188 C 169.925781 83.089844 170.648438 83.785156 171.519531 84.328125 C 172.382812 84.871094 173.332031 85.3125 174.359375 85.652344 C 175.386719 86 176.335938 86.355469 177.199219 86.730469 C 178.0625 87.109375 178.789062 87.574219 179.375 88.128906 C 179.960938 88.6875 180.253906 89.457031 180.253906 90.4375 C 180.253906 91.878906 179.796875 92.875 178.882812 93.429688 C 177.972656 93.988281 176.8125 94.265625 175.410156 94.265625 C 174.160156 94.265625 172.933594 94.085938 171.738281 93.726562 C 170.53125 93.367188 169.554688 92.972656 168.800781 92.546875 L 167.625 95.886719 C 168.507812 96.378906 169.601562 96.804688 170.90625 97.160156 C 172.210938 97.523438 173.792969 97.703125 175.652344 97.703125 C 177.089844 97.703125 178.339844 97.515625 179.398438 97.136719 C 180.457031 96.765625 181.347656 96.25 182.0625 95.59375 C 182.785156 94.9375 183.316406 94.152344 183.65625 93.238281 C 184.003906 92.289062 184.175781 91.304688 184.167969 90.292969 C 184.167969 88.820312 183.875 87.632812 183.289062 86.734375 C 182.714844 85.839844 181.992188 85.097656 181.117188 84.503906 Z M 205.707031 94.292969 C 205.265625 93.167969 205.046875 91.996094 205.046875 90.785156 C 205.046875 89.117188 205.097656 87.351562 205.195312 85.484375 C 205.292969 83.621094 205.339844 81.703125 205.339844 79.742188 C 205.339844 78.859375 205.253906 77.976562 205.074219 77.089844 C 204.890625 76.207031 204.535156 75.398438 203.996094 74.664062 C 203.457031 73.925781 202.675781 73.328125 201.644531 72.871094 C 200.617188 72.417969 199.253906 72.183594 197.558594 72.183594 C 195.765625 72.183594 194.042969 72.363281 192.398438 72.722656 C 190.75 73.085938 189.304688 73.640625 188.066406 74.390625 L 189.289062 77.339844 C 189.796875 77.054688 190.328125 76.816406 190.882812 76.628906 C 191.507812 76.410156 192.140625 76.230469 192.789062 76.089844 C 193.4375 75.945312 194.089844 75.828125 194.746094 75.746094 C 195.382812 75.664062 195.980469 75.621094 196.53125 75.621094 C 198.421875 75.621094 199.730469 75.980469 200.449219 76.699219 C 201.164062 77.421875 201.523438 78.679688 201.523438 80.480469 C 201.523438 81.265625 201.476562 82.148438 201.378906 83.132812 C 200.933594 83.066406 200.484375 83.035156 200.035156 83.035156 L 198.6875 83.035156 C 196.433594 83.035156 194.296875 83.15625 192.273438 83.402344 C 190.25 83.648438 188.683594 84.539062 187.574219 86.074219 C 186.464844 87.617188 185.910156 89.105469 185.910156 90.542969 C 185.910156 91.621094 186.097656 92.585938 186.476562 93.4375 C 186.835938 94.273438 187.347656 95.003906 188.015625 95.625 C 188.667969 96.230469 189.441406 96.695312 190.339844 97.023438 C 191.238281 97.347656 192.207031 97.515625 193.25 97.515625 C 194.292969 97.515625 195.335938 97.394531 196.382812 97.167969 C 197.429688 96.941406 198.261719 96.652344 198.878906 96.3125 C 199.464844 95.992188 199.996094 95.597656 200.46875 95.132812 C 200.90625 94.691406 201.277344 94.242188 201.570312 93.78125 L 201.816406 93.78125 C 202.5 96.070312 203.351562 97.21875 204.359375 97.21875 L 207.835938 97.21875 C 206.875 96.425781 206.164062 95.453125 205.707031 94.292969 Z M 201.378906 90.195312 C 201.1875 90.671875 200.933594 91.117188 200.617188 91.523438 C 200.277344 91.980469 199.84375 92.398438 199.324219 92.773438 C 198.800781 93.148438 198.070312 93.460938 197.121094 93.707031 C 196.171875 93.953125 195.242188 94.074219 194.332031 94.074219 C 193.058594 94.074219 192.011719 93.707031 191.199219 92.96875 C 190.382812 92.230469 189.972656 91.292969 189.972656 90.148438 C 189.972656 89.332031 190.292969 88.496094 190.929688 87.644531 C 191.566406 86.792969 192.628906 86.308594 194.132812 86.195312 C 195.617188 86.082031 197.097656 86.023438 198.585938 86.023438 C 199.515625 86.027344 200.445312 86.058594 201.375 86.121094 L 201.375 90.199219 L 201.378906 90.199219 Z M 239.25 88.675781 L 239.25 62.757812 L 235.335938 62.757812 L 235.335938 72.964844 C 234.59375 72.695312 233.835938 72.480469 233.0625 72.328125 C 232.355469 72.199219 231.402344 72.132812 230.199219 72.132812 C 226.742188 72.132812 224.023438 73.222656 222.050781 75.394531 C 220.074219 77.574219 219.089844 80.757812 219.089844 84.941406 C 219.089844 89.328125 219.882812 92.550781 221.460938 94.613281 C 223.046875 96.675781 225.46875 97.703125 228.730469 97.703125 C 230.394531 97.703125 231.84375 97.328125 233.085938 96.574219 C 234.328125 95.824219 235.269531 94.875 235.925781 93.726562 L 236.121094 93.726562 L 237.101562 97.210938 L 239.742188 97.210938 C 239.476562 95.894531 239.332031 94.558594 239.300781 93.214844 C 239.265625 91.859375 239.25 90.34375 239.25 88.675781 Z M 235.335938 89.019531 C 234.976562 90.785156 234.308594 92.101562 233.332031 92.96875 C 232.351562 93.835938 231.03125 94.269531 229.367188 94.269531 C 228.222656 94.269531 227.253906 94.035156 226.457031 93.558594 C 225.65625 93.082031 225.011719 92.441406 224.523438 91.621094 C 224.03125 90.804688 223.679688 89.824219 223.472656 88.675781 C 223.25 87.441406 223.144531 86.199219 223.152344 84.945312 C 223.152344 81.671875 223.789062 79.289062 225.0625 77.804688 C 226.335938 76.3125 228.097656 75.570312 230.347656 75.570312 C 231.589844 75.570312 232.582031 75.671875 233.332031 75.867188 C 234.070312 76.050781 234.738281 76.378906 235.339844 76.847656 L 235.339844 89.019531 Z M 260.503906 75.496094 C 259.605469 74.347656 258.488281 73.480469 257.15625 72.894531 C 255.800781 72.289062 254.210938 71.984375 252.382812 71.984375 C 248.929688 71.984375 246.273438 73.089844 244.429688 75.300781 C 242.589844 77.507812 241.667969 80.691406 241.667969 84.847656 C 241.667969 86.777344 241.878906 88.535156 242.300781 90.121094 C 242.726562 91.707031 243.378906 93.066406 244.261719 94.195312 C 245.160156 95.34375 246.277344 96.210938 247.613281 96.796875 C 248.964844 97.402344 250.558594 97.703125 252.382812 97.703125 C 255.84375 97.703125 258.492188 96.601562 260.335938 94.394531 C 262.179688 92.183594 263.105469 89.003906 263.105469 84.847656 C 263.105469 82.914062 262.890625 81.15625 262.464844 79.570312 C 262.039062 77.984375 261.386719 76.625 260.503906 75.496094 Z M 252.382812 94.269531 C 251.175781 94.269531 250.148438 94.007812 249.296875 93.484375 C 248.445312 92.964844 247.761719 92.277344 247.242188 91.421875 C 246.722656 90.574219 246.339844 89.578125 246.09375 88.429688 C 245.84375 87.246094 245.722656 86.054688 245.726562 84.847656 C 245.726562 78.53125 247.949219 75.390625 252.382812 75.421875 C 253.589844 75.421875 254.617188 75.675781 255.46875 76.183594 C 256.320312 76.6875 257.003906 77.367188 257.519531 78.21875 C 258.042969 79.066406 258.425781 80.066406 258.671875 81.210938 C 258.914062 82.359375 259.035156 83.566406 259.035156 84.84375 C 259.039062 91.160156 256.820312 94.304688 252.382812 94.269531 Z M 314.648438 62.195312 L 309.902344 62.195312 L 305.644531 69.214844 L 308.679688 69.214844 Z M 314.648438 62.195312 " fill-opacity="1" fill-rule="nonzero"/><path fill="#000000" d="M 308.386719 71.960938 C 301.875 71.960938 296.640625 76.625 296.640625 84.527344 C 296.640625 92.039062 301.628906 96.746094 307.992188 96.746094 C 313.667969 96.746094 319.789062 92.921875 319.789062 84.132812 C 319.789062 76.921875 315.1875 71.960938 308.386719 71.960938 Z M 308.1875 93.507812 C 303.976562 93.507812 301.042969 89.582031 301.042969 84.378906 C 301.042969 79.910156 303.246094 75.199219 308.285156 75.199219 C 313.378906 75.199219 315.382812 80.253906 315.382812 84.277344 C 315.382812 89.628906 312.300781 93.507812 308.1875 93.507812 Z M 343.425781 61.359375 L 339.167969 61.359375 L 339.167969 75.546875 L 339.070312 75.546875 C 337.992188 73.679688 335.597656 71.960938 331.925781 71.960938 C 326.199219 71.960938 321.253906 76.773438 321.304688 84.675781 C 321.304688 91.890625 325.757812 96.746094 331.484375 96.746094 C 335.351562 96.746094 338.1875 94.734375 339.460938 92.085938 L 339.609375 92.085938 L 339.804688 96.210938 L 343.621094 96.210938 C 343.5 94.167969 343.433594 92.121094 343.425781 90.074219 Z M 339.167969 86.246094 C 339.167969 86.929688 339.117188 87.523438 338.972656 88.109375 C 338.1875 91.300781 335.546875 93.265625 332.660156 93.265625 C 328.058594 93.265625 325.660156 89.289062 325.660156 84.480469 C 325.660156 79.277344 328.304688 75.351562 332.757812 75.351562 C 335.988281 75.351562 338.335938 77.605469 338.972656 80.304688 C 339.117188 80.847656 339.167969 81.582031 339.167969 82.121094 Z M 374.265625 76.039062 L 374.167969 76.039062 C 373.089844 74.070312 370.890625 71.960938 366.777344 71.960938 C 361.296875 71.960938 356.058594 76.480469 356.058594 84.527344 C 356.058594 91.105469 360.269531 96.109375 366.140625 96.109375 C 369.8125 96.109375 372.40625 94.34375 373.679688 92.132812 L 373.773438 92.132812 L 373.773438 94.734375 C 373.773438 100.773438 370.542969 103.078125 366.140625 103.078125 C 363.207031 103.078125 360.757812 102.195312 359.191406 101.164062 L 358.113281 104.503906 C 360.023438 105.777344 363.15625 106.464844 365.996094 106.464844 C 368.980469 106.464844 372.308594 105.726562 374.65625 103.621094 C 376.910156 101.507812 378.035156 98.21875 378.035156 92.726562 L 378.035156 78.929688 C 378.035156 76.085938 378.082031 74.121094 378.230469 72.453125 L 374.410156 72.453125 Z M 373.726562 86.097656 C 373.726562 86.835938 373.628906 87.667969 373.386719 88.40625 C 372.503906 91.152344 370.105469 92.820312 367.414062 92.820312 C 362.8125 92.820312 360.414062 88.945312 360.414062 84.28125 C 360.414062 78.785156 363.351562 75.296875 367.460938 75.296875 C 370.644531 75.296875 372.699219 77.363281 373.480469 79.914062 C 373.679688 80.453125 373.726562 81.09375 373.726562 81.828125 Z M 392.492188 71.960938 C 385.984375 71.960938 380.746094 76.625 380.746094 84.527344 C 380.746094 92.039062 385.738281 96.746094 392.101562 96.746094 C 397.777344 96.746094 403.894531 92.921875 403.894531 84.132812 C 403.894531 76.921875 399.292969 71.960938 392.492188 71.960938 Z M 392.296875 93.507812 C 388.085938 93.507812 385.152344 89.582031 385.152344 84.378906 C 385.152344 79.910156 387.355469 75.199219 392.394531 75.199219 C 397.484375 75.199219 399.492188 80.253906 399.492188 84.277344 C 399.488281 89.628906 396.40625 93.507812 392.296875 93.507812 Z M 349.855469 63.078125 C 348.242188 63.078125 347.164062 64.304688 347.164062 65.777344 C 347.164062 67.25 348.191406 68.425781 349.757812 68.425781 C 351.472656 68.425781 352.5 67.25 352.5 65.777344 C 352.5 64.257812 351.421875 63.078125 349.855469 63.078125 Z M 347.703125 72.453125 L 352.007812 72.453125 L 352.007812 96.210938 L 347.703125 96.210938 Z M 347.703125 72.453125 " fill-opacity="1" fill-rule="nonzero"/><path fill="#000000" d="M 122.417969 111.238281 L 124.585938 111.238281 L 124.585938 126.089844 L 131.683594 126.089844 L 131.683594 127.894531 L 122.417969 127.894531 Z M 141.34375 112.574219 C 141.34375 113.3125 140.828125 113.90625 139.964844 113.90625 C 139.175781 113.90625 138.660156 113.3125 138.660156 112.574219 C 138.660156 111.832031 139.199219 111.214844 140.011719 111.214844 C 140.800781 111.214844 141.34375 111.808594 141.34375 112.574219 Z M 138.929688 127.894531 L 138.929688 115.933594 L 141.097656 115.933594 L 141.097656 127.894531 Z M 150.464844 115.933594 L 152.804688 122.628906 C 153.199219 123.742188 153.519531 124.730469 153.761719 125.71875 L 153.835938 125.71875 C 154.105469 124.730469 154.453125 123.742188 154.84375 122.628906 L 157.164062 115.933594 L 159.433594 115.933594 L 154.75 127.894531 L 152.679688 127.894531 L 148.144531 115.933594 Z M 166.40625 119.664062 C 166.40625 118.257812 166.382812 117.046875 166.308594 115.933594 L 168.207031 115.933594 L 168.304688 118.304688 L 168.378906 118.304688 C 168.921875 116.699219 170.253906 115.683594 171.707031 115.683594 C 171.925781 115.683594 172.101562 115.710938 172.296875 115.734375 L 172.296875 117.785156 C 172.078125 117.738281 171.855469 117.738281 171.558594 117.738281 C 170.03125 117.738281 168.945312 118.875 168.648438 120.507812 C 168.597656 120.839844 168.574219 121.179688 168.578125 121.515625 L 168.578125 127.894531 L 166.40625 127.894531 Z M 189.945312 121.8125 C 189.945312 126.238281 186.863281 128.164062 184.003906 128.164062 C 180.800781 128.164062 178.289062 125.792969 178.289062 122.007812 C 178.289062 118.03125 180.921875 115.683594 184.203125 115.683594 C 187.628906 115.683594 189.945312 118.183594 189.945312 121.8125 Z M 180.507812 121.9375 C 180.507812 124.558594 181.988281 126.535156 184.105469 126.535156 C 186.175781 126.535156 187.726562 124.582031 187.726562 121.890625 C 187.726562 119.863281 186.714844 117.316406 184.152344 117.316406 C 181.613281 117.316406 180.507812 119.691406 180.507812 121.9375 Z M 197.3125 125.695312 C 197.980469 126.089844 199.113281 126.535156 200.199219 126.535156 C 201.75 126.535156 202.488281 125.769531 202.488281 124.757812 C 202.488281 123.71875 201.875 123.175781 200.296875 122.582031 C 198.128906 121.789062 197.117188 120.628906 197.117188 119.195312 C 197.117188 117.265625 198.695312 115.683594 201.234375 115.683594 C 202.4375 115.683594 203.5 116.007812 204.140625 116.429688 L 203.625 118.011719 C 202.878906 117.539062 202.066406 117.296875 201.1875 117.292969 C 199.90625 117.292969 199.214844 118.035156 199.214844 118.925781 C 199.214844 119.914062 199.90625 120.359375 201.457031 120.976562 C 203.5 121.742188 204.585938 122.78125 204.585938 124.558594 C 204.585938 126.6875 202.933594 128.167969 200.152344 128.167969 C 198.847656 128.167969 197.636719 127.820312 196.800781 127.328125 Z M 223.660156 122.308594 C 223.710938 125.25 225.558594 126.460938 227.75 126.460938 C 229.304688 126.460938 230.265625 126.1875 231.050781 125.84375 L 231.445312 127.398438 C 230.683594 127.746094 229.351562 128.164062 227.453125 128.164062 C 223.785156 128.164062 221.589844 125.71875 221.589844 122.105469 C 221.589844 118.5 223.710938 115.683594 227.183594 115.683594 C 231.101562 115.683594 232.113281 119.09375 232.113281 121.296875 C 232.113281 121.738281 232.089844 122.058594 232.039062 122.304688 Z M 230.019531 120.753906 C 230.042969 119.394531 229.453125 117.246094 227.011719 117.246094 C 224.792969 117.246094 223.859375 119.246094 223.6875 120.753906 Z M 252.101562 113.066406 L 247.050781 113.066406 L 247.050781 111.238281 L 259.347656 111.238281 L 259.347656 113.066406 L 254.269531 113.066406 L 254.269531 127.894531 L 252.101562 127.894531 Z M 265.507812 122.308594 C 265.558594 125.25 267.40625 126.460938 269.597656 126.460938 C 271.148438 126.460938 272.113281 126.1875 272.898438 125.84375 L 273.292969 127.398438 C 272.53125 127.746094 271.199219 128.164062 269.304688 128.164062 C 265.628906 128.164062 263.4375 125.71875 263.4375 122.105469 C 263.4375 118.5 265.558594 115.683594 269.035156 115.683594 C 272.953125 115.683594 273.960938 119.09375 273.960938 121.296875 C 273.960938 121.738281 273.9375 122.058594 273.886719 122.304688 Z M 271.867188 120.753906 C 271.890625 119.394531 271.300781 117.246094 268.859375 117.246094 C 266.644531 117.246094 265.707031 119.246094 265.535156 120.753906 Z M 290.078125 127.472656 C 289.515625 127.746094 288.257812 128.167969 286.65625 128.167969 C 283.058594 128.167969 280.714844 125.71875 280.714844 122.0625 C 280.714844 118.378906 283.230469 115.683594 287.121094 115.683594 C 288.402344 115.683594 289.539062 116.007812 290.128906 116.328125 L 289.636719 117.984375 C 289.121094 117.714844 288.304688 117.417969 287.121094 117.417969 C 284.386719 117.417969 282.90625 119.46875 282.90625 121.9375 C 282.90625 124.707031 284.683594 126.414062 287.046875 126.414062 C 287.976562 126.421875 288.863281 126.234375 289.707031 125.847656 Z M 297.550781 119.171875 C 297.550781 117.910156 297.523438 116.921875 297.449219 115.933594 L 299.375 115.933594 L 299.496094 117.910156 L 299.546875 117.910156 C 300.136719 116.800781 301.519531 115.683594 303.488281 115.683594 C 305.136719 115.683594 307.703125 116.675781 307.703125 120.777344 L 307.703125 127.894531 L 305.53125 127.894531 L 305.53125 121 C 305.53125 119.070312 304.820312 117.464844 302.773438 117.464844 C 301.367188 117.464844 300.257812 118.476562 299.863281 119.691406 C 299.765625 119.960938 299.714844 120.332031 299.714844 120.703125 L 299.714844 127.894531 L 297.546875 127.894531 Z M 326.949219 121.8125 C 326.949219 126.238281 323.867188 128.164062 321.011719 128.164062 C 317.808594 128.164062 315.292969 125.792969 315.292969 122.007812 C 315.292969 118.03125 317.929688 115.683594 321.207031 115.683594 C 324.632812 115.683594 326.949219 118.183594 326.949219 121.8125 Z M 317.511719 121.9375 C 317.511719 124.558594 318.992188 126.535156 321.109375 126.535156 C 323.179688 126.535156 324.734375 124.582031 324.734375 121.890625 C 324.734375 119.863281 323.722656 117.316406 321.160156 117.316406 C 318.621094 117.316406 317.511719 119.691406 317.511719 121.9375 Z M 334.617188 110.347656 L 336.785156 110.347656 L 336.785156 127.894531 L 334.617188 127.894531 Z M 356.15625 121.8125 C 356.15625 126.238281 353.074219 128.164062 350.214844 128.164062 C 347.011719 128.164062 344.5 125.792969 344.5 122.007812 C 344.5 118.03125 347.136719 115.683594 350.414062 115.683594 C 353.839844 115.683594 356.15625 118.183594 356.15625 121.8125 Z M 346.71875 121.9375 C 346.71875 124.558594 348.199219 126.535156 350.3125 126.535156 C 352.382812 126.535156 353.9375 124.582031 353.9375 121.890625 C 353.9375 119.863281 352.929688 117.316406 350.363281 117.316406 C 347.828125 117.316406 346.71875 119.691406 346.71875 121.9375 Z M 374.023438 126.140625 C 374.023438 128.910156 373.457031 130.5625 372.324219 131.625 C 371.140625 132.6875 369.464844 133.058594 367.960938 133.058594 C 366.535156 133.058594 364.953125 132.714844 363.992188 132.070312 L 364.539062 130.390625 C 365.324219 130.90625 366.558594 131.355469 368.035156 131.355469 C 370.253906 131.355469 371.878906 130.191406 371.878906 127.152344 L 371.878906 125.84375 L 371.828125 125.84375 C 371.1875 126.953125 369.882812 127.84375 368.035156 127.84375 C 365.074219 127.84375 362.960938 125.324219 362.960938 122.011719 C 362.960938 117.960938 365.597656 115.683594 368.355469 115.683594 C 370.425781 115.683594 371.535156 116.75 372.078125 117.738281 L 372.128906 117.738281 L 372.199219 115.933594 L 374.125 115.933594 C 374.050781 116.773438 374.023438 117.761719 374.023438 119.195312 Z M 371.855469 120.652344 C 371.855469 120.285156 371.832031 119.960938 371.734375 119.691406 C 371.339844 118.40625 370.304688 117.367188 368.703125 117.367188 C 366.632812 117.367188 365.15625 119.121094 365.15625 121.890625 C 365.15625 124.238281 366.359375 126.1875 368.679688 126.1875 C 370.035156 126.1875 371.242188 125.351562 371.6875 123.964844 C 371.808594 123.59375 371.859375 123.175781 371.859375 122.800781 Z M 384.796875 112.574219 C 384.796875 113.3125 384.28125 113.90625 383.417969 113.90625 C 382.628906 113.90625 382.109375 113.3125 382.109375 112.574219 C 382.109375 111.832031 382.652344 111.214844 383.464844 111.214844 C 384.253906 111.214844 384.796875 111.808594 384.796875 112.574219 Z M 382.382812 127.894531 L 382.382812 115.933594 L 384.550781 115.933594 L 384.550781 127.894531 Z M 401.457031 125.027344 C 401.457031 126.066406 401.503906 127.078125 401.628906 127.894531 L 399.679688 127.894531 L 399.507812 126.390625 L 399.433594 126.390625 C 398.769531 127.328125 397.488281 128.167969 395.789062 128.167969 C 393.375 128.167969 392.144531 126.464844 392.144531 124.734375 C 392.144531 121.84375 394.707031 120.261719 399.3125 120.289062 L 399.3125 120.039062 C 399.3125 119.078125 399.042969 117.269531 396.601562 117.296875 C 395.464844 117.296875 394.308594 117.617188 393.472656 118.1875 L 392.980469 116.730469 C 393.964844 116.113281 395.417969 115.691406 396.921875 115.691406 C 400.566406 115.691406 401.453125 118.1875 401.453125 120.558594 L 401.453125 125.027344 Z M 399.359375 121.792969 C 396.996094 121.742188 394.308594 122.160156 394.308594 124.484375 C 394.308594 125.917969 395.246094 126.558594 396.332031 126.558594 C 397.910156 126.558594 398.914062 125.570312 399.261719 124.558594 C 399.335938 124.3125 399.359375 124.066406 399.359375 123.867188 Z M 399.359375 121.792969 " fill-opacity="1" fill-rule="nonzero"/></svg>